<?xml version="1.0" encoding="utf-8"?>
<!-- Generator: Adobe Illustrator 19.0.0, SVG Export Plug-In . SVG Version: 6.00 Build 0)  -->
<svg version="1.1" id="Layer_1" xmlns="http://www.w3.org/2000/svg" xmlns:xlink="http://www.w3.org/1999/xlink" x="0px" y="0px"
	 viewBox="995.6 -504.4 2500 2212.6" style="enable-background:new 995.6 -504.4 2500 2212.6;" xml:space="preserve">
<style type="text/css">
	.st0{fill:#FFFFFF;}
	.st1{fill:#6CC655;}
</style>
<path class="st0" d="M1303.4,601.3l954.2-954.2l954.2,954.2l-954.2,954.2L1303.4,601.3z"/>
<path class="st1" d="M1766.1,1636.6L1060,925.7c-85.9-85.9-85.9-271.9,0-353.1L2071.5-443.6c81.1-81.1,262.4-81.1,343.5,0
	L3431.2,572.7c85.9,85.9,85.9,272,0,353.1l-706.1,710.9c-42.9,42.9-109.7,71.6-176.5,71.6h-615.5
	C1871.1,1708.2,1809.1,1679.5,1766.1,1636.6z M2410.2,1359.9c14.3-14.3,14.3-42.9,0-57.2l-138.4-138.4c-14.3-14.3-42.9-14.3-57.2,0
	l-138.4,138.4c-14.3,14.3-14.3,42.9,0,57.2l109.7,105h114.5L2410.2,1359.9L2410.2,1359.9z M2410.2,773c9.5-9.5,9.5-33.4,0-42.9
	l-147.9-147.9c-9.5-9.5-33.4-9.5-42.9,0L1790,1011.6c-14.3,14.3-14.3,47.7,0,62l100.2,100.2h114.5L2410.2,773L2410.2,773z
	 M2410.2,191c9.5-9.5,14.3-38.2,0-47.7L2267.1,0.1c-9.5-9.5-38.2-9.5-52.5,0l-720.4,720.4c-9.5,9.5-14.3,38.2-4.8,47.7L1603.9,878
	h109.7L2410.2,191L2410.2,191z"/>
</svg>
